<svg xmlns="http://www.w3.org/2000/svg" xmlns:xlink="http://www.w3.org/1999/xlink" width="33.352" height="35.751" viewBox="0 0 33.352 35.751">
  <defs>
    <linearGradient id="linear-gradient" x1="0.5" x2="0.5" y2="1" gradientUnits="objectBoundingBox">
      <stop offset="0" stop-color="#c31432"/>
      <stop offset="1" stop-color="#060d0b"/>
    </linearGradient>
  </defs>
  <path id="Icon_material-queue-music" data-name="Icon material-queue-music" d="M22.5,9H4.5v3h18Zm0,6H4.5v3h18Zm-18,9h12V21H4.5Zm21-15V21.27a4.493,4.493,0,1,0,3,4.23V12H33V9Z" transform="translate(-1.659 5.751)" fill="url(#linear-gradient)"/>
  <path id="Icon_ionic-ios-arrow-back" data-name="Icon ionic-ios-arrow-back" d="M15.321,22.865l8.937-12.61a3.1,3.1,0,0,0,0-3.366,1.374,1.374,0,0,0-2.391,0L11.742,21.177a3.126,3.126,0,0,0-.049,3.286L21.86,38.851a1.375,1.375,0,0,0,2.391,0,3.1,3.1,0,0,0,0-3.366Z" transform="translate(39.546 -11.251) rotate(90)" fill="url(#linear-gradient)"/>
</svg>
